HIERARCHY
ROOT Hips
{
	OFFSET 0.000000 0.000000 0.000000
	CHANNELS 6 Xposition Yposition Zposition Xrotation Yrotation Zrotation
	JOINT LeftUpLeg_virtual
	{
		OFFSET 0.000000 0.000000 0.000000
		CHANNELS 3 Xrotation Yrotation Zrotation
		JOINT LeftUpLeg
		{
			OFFSET 13.026900 -6.336304 -1.092800
			CHANNELS 3 Xrotation Yrotation Zrotation
			JOINT LeftLeg
			{
				OFFSET 0.524474 -46.096886 9.782700
				CHANNELS 3 Xrotation Yrotation Zrotation
				JOINT LeftFoot
				{
					OFFSET -0.524474 -53.427422 -12.948200
					CHANNELS 3 Xrotation Yrotation Zrotation
					JOINT LeftToeBase
					{
						OFFSET 0.192200 -14.009700 16.364100
						CHANNELS 3 Xrotation Yrotation Zrotation
						JOINT LeftToe_End
						{
							OFFSET -1.784700 -0.561700 9.474800
							CHANNELS 3 Xrotation Yrotation Zrotation
							End Site
							{
								OFFSET 0 0 0
							}
						}
					}
				}
			}
		}
	}
	JOINT RightUpLeg_virtual
	{
		OFFSET 0.000000 0.000000 0.000000
		CHANNELS 3 Xrotation Yrotation Zrotation
		JOINT RightUpLeg
		{
			OFFSET -12.883000 -6.336304 -1.092800
			CHANNELS 3 Xrotation Yrotation Zrotation
			JOINT RightLeg
			{
				OFFSET -0.524587 -46.096825 9.782800
				CHANNELS 3 Xrotation Yrotation Zrotation
				JOINT RightFoot
				{
					OFFSET 0.524587 -53.427383 -12.948300
					CHANNELS 3 Xrotation Yrotation Zrotation
					JOINT RightToeBase
					{
						OFFSET -0.192200 -14.009700 16.364100
						CHANNELS 3 Xrotation Yrotation Zrotation
						JOINT RightToe_End
						{
							OFFSET 1.784700 -0.561700 9.474800
							CHANNELS 3 Xrotation Yrotation Zrotation
							End Site
							{
								OFFSET 0 0 0
							}
						}
					}
				}
			}
		}
	}
	JOINT Spine_virtual
	{
		OFFSET 0.000000 0.000000 0.000000
		CHANNELS 3 Xrotation Yrotation Zrotation
		JOINT Spine
		{
			OFFSET 0.072000 7.257294 -0.789700
			CHANNELS 3 Xrotation Yrotation Zrotation
			JOINT Spine1
			{
				OFFSET 0.000000 12.508769 -0.658067
				CHANNELS 3 Xrotation Yrotation Zrotation
				JOINT Spine1_split
				{
					OFFSET 0.000000 12.508769 -0.658067
					CHANNELS 3 Xrotation Yrotation Zrotation
					JOINT Spine2
					{
						OFFSET 0.000000 12.508769 -0.658067
						CHANNELS 3 Xrotation Yrotation Zrotation
						JOINT Neck_virtual
						{
							OFFSET 0.000000 0.000000 0.000000
							CHANNELS 3 Xrotation Yrotation Zrotation
							JOINT Neck
							{
								OFFSET 0.000000 14.033295 7.520400
								CHANNELS 3 Xrotation Yrotation Zrotation
								JOINT Head
								{
									OFFSET 0.000000 8.198502 5.703100
									CHANNELS 3 Xrotation Yrotation Zrotation
									JOINT HeadTop_End
									{
										OFFSET 0.000000 17.760803 13.332701
										CHANNELS 3 Xrotation Yrotation Zrotation
										End Site
										{
											OFFSET 0 0 0
										}
									}
								}
							}
						}
						JOINT LeftShoulder_virtual
						{
							OFFSET 0.000000 0.000000 0.000000
							CHANNELS 3 Xrotation Yrotation Zrotation
							JOINT LeftShoulder
							{
								OFFSET 6.292450 5.785301 -0.669000
								CHANNELS 3 Xrotation Yrotation Zrotation
								JOINT LeftShoulder_split
								{
									OFFSET 6.292450 5.785301 -0.669000
									CHANNELS 3 Xrotation Yrotation Zrotation
									JOINT LeftArm
									{
										OFFSET 13.907140 -6.093903 1.965100
										CHANNELS 3 Xrotation Yrotation Zrotation
										JOINT LeftForeArm
										{
											OFFSET 34.140198 0.000000 0.000000
											CHANNELS 3 Xrotation Yrotation Zrotation
											JOINT LeftHand
											{
												OFFSET 40.960209 0.000000 0.000000
												CHANNELS 3 Xrotation Yrotation Zrotation
												End Site
												{
													OFFSET 0 0 0
												}
											}
										}
									}
								}
							}
						}
						JOINT RightShoulder_virtual
						{
							OFFSET 0.000000 0.000000 0.000000
							CHANNELS 3 Xrotation Yrotation Zrotation
							JOINT RightShoulder
							{
								OFFSET -6.292450 5.785301 -0.669000
								CHANNELS 3 Xrotation Yrotation Zrotation
								JOINT RightShoulder_split
								{
									OFFSET -6.292450 5.785301 -0.669000
									CHANNELS 3 Xrotation Yrotation Zrotation
									JOINT RightArm
									{
										OFFSET -13.907140 -6.093903 1.965100
										CHANNELS 3 Xrotation Yrotation Zrotation
										JOINT RightForeArm
										{
											OFFSET -34.140198 0.000000 0.000000
											CHANNELS 3 Xrotation Yrotation Zrotation
											JOINT RightHand
											{
												OFFSET -40.960209 0.000000 0.000000
												CHANNELS 3 Xrotation Yrotation Zrotation
												End Site
												{
													OFFSET 0 0 0
												}
											}
										}
									}
								}
							}
						}
					}
				}
			}
		}
	}
}
MOTION
Frames: 10
Frame Time: 0.03333333
-0.118083 116.030228 1.232178 0.000000 0.000000 0.000000 -3.366416 2.099198 2.668825 -0.683795 7.992904 5.079284 13.914270 5.260930 -0.816750 -11.293714 1.066372 -4.862906 1.112720 0.185872 -0.761755 0.000000 0.000000 0.000000 -3.550399 2.483543 2.672284 -1.955236 -10.017345 -11.896952 12.986015 -5.647813 -1.341623 -6.186460 -1.248801 7.251560 -4.444334 -0.166459 -0.156038 0.000000 0.000000 0.000000 -2.362374 2.370852 2.199848 3.463503 -0.378454 -0.056049 1.380932 -0.448051 0.758182 0.923816 0.073488 0.173058 0.000000 0.000000 0.000000 0.941327 -0.064855 0.180517 0.292111 0.608907 -1.024753 -4.517377 -5.010012 -1.656253 0.000000 0.000000 0.000000 1.029296 -0.131402 0.378351 0.949341 -2.201446 -16.080794 -0.144282 -0.454401 -0.611082 4.445254 -8.377314 -37.357450 0.831756 -64.958056 0.868070 0.000000 0.000000 0.000000 1.057799 -0.014019 0.441934 1.184562 4.701429 20.356055 1.410151 1.323759 -1.424474 -2.872996 5.654525 57.679636 0.408409 18.745874 0.416959 0.000000 0.000000 0.000000 
-0.163924 116.026192 1.290554 0.000000 0.000000 0.000000 -3.436594 2.092586 2.711398 -0.631334 8.146996 5.057674 13.856957 5.228210 -0.789571 -11.226439 1.069781 -4.830084 1.124504 0.184646 -0.760436 0.000000 0.000000 0.000000 -3.578075 2.468676 2.704466 -1.931515 -9.979007 -11.922241 13.068428 -5.622660 -1.327408 -6.206599 -1.237168 7.327271 -4.443451 -0.165057 -0.172009 0.000000 0.000000 0.000000 -2.428415 2.431493 2.220824 3.457798 -0.385902 -0.061222 1.360199 -0.433427 0.782343 0.981109 -0.005473 0.203460 0.000000 0.000000 0.000000 0.974151 -0.059265 0.220179 0.261947 0.700155 -1.159844 -4.369925 -5.026417 -1.620905 0.000000 0.000000 0.000000 0.979359 -0.111361 0.378384 0.984669 -2.167532 -16.066418 -0.248170 -0.663228 -0.610008 4.550014 -8.388061 -37.360817 0.842298 -64.897111 0.879955 0.000000 0.000000 0.000000 1.064293 0.003415 0.472863 1.224653 4.505665 20.227790 1.041569 1.150299 -1.355829 -2.960173 5.917384 57.345387 0.477601 18.251403 0.471386 0.000000 0.000000 0.000000 
-0.179622 116.027740 1.350315 0.000000 0.000000 0.000000 -3.491636 2.240578 2.786554 -0.538272 8.284018 4.964355 13.699923 5.190020 -0.752936 -11.139338 1.061260 -4.727258 1.130076 0.184139 -0.760972 0.000000 0.000000 0.000000 -3.625780 2.587765 2.772419 -1.840418 -9.940545 -11.967986 13.167278 -5.660732 -1.317646 -6.239777 -1.266162 7.409032 -4.435090 -0.167739 -0.168825 0.000000 0.000000 0.000000 -2.504623 2.575799 2.270218 3.421467 -0.390031 -0.074356 1.330945 -0.423022 0.794128 0.965923 -0.023483 0.230873 0.000000 0.000000 0.000000 0.985834 -0.061521 0.248669 0.275819 0.887854 -1.263691 -4.042214 -4.928805 -1.548451 0.000000 0.000000 0.000000 0.943487 -0.092475 0.362851 1.032094 -2.102215 -16.011317 -0.301658 -0.836462 -0.665089 4.628763 -8.372251 -37.402717 0.884748 -64.857871 0.954246 0.000000 0.000000 0.000000 1.074117 0.015308 0.486269 1.300039 4.343203 19.861282 0.730020 1.086754 -1.263221 -3.167767 6.121056 57.238922 0.533991 17.688986 0.505781 0.000000 0.000000 0.000000 
-0.159426 116.025009 1.412300 0.000000 0.000000 0.000000 -3.540984 2.511294 2.874898 -0.429750 8.388879 4.815715 13.504031 5.129646 -0.709571 -11.056702 1.041492 -4.573274 1.133237 0.184430 -0.764066 0.000000 0.000000 0.000000 -3.689118 2.825647 2.859012 -1.690217 -9.912638 -12.028183 13.256492 -5.763412 -1.314491 -6.289426 -1.324475 7.497348 -4.424916 -0.171707 -0.153163 0.000000 0.000000 0.000000 -2.590537 2.771602 2.336628 3.362921 -0.387402 -0.085203 1.293273 -0.416988 0.792770 0.902229 0.013783 0.238060 0.000000 0.000000 0.000000 0.970880 -0.071176 0.266912 0.330936 1.164826 -1.333812 -3.572137 -4.737153 -1.438526 0.000000 0.000000 0.000000 0.916095 -0.079434 0.338409 1.084462 -2.022010 -15.922858 -0.337389 -0.942489 -0.725118 4.659246 -8.329952 -37.477330 0.948547 -64.841431 1.074521 0.000000 0.000000 0.000000 1.084271 0.022284 0.482129 1.398872 4.220357 19.291627 0.523401 1.078887 -1.181888 -3.393182 6.245577 57.367428 0.569866 17.258592 0.510682 0.000000 0.000000 0.000000 
-0.114511 116.010056 1.459194 0.000000 0.000000 0.000000 -3.589300 2.881004 2.963139 -0.337123 8.451440 4.633500 13.324634 5.035149 -0.661478 -11.004516 1.012823 -4.387987 1.140777 0.186540 -0.772550 0.000000 0.000000 0.000000 -3.760785 3.162157 2.947096 -1.506195 -9.903871 -12.095156 13.326783 -5.922727 -1.313895 -6.359070 -1.384297 7.601396 -4.418137 -0.173848 -0.133278 0.000000 0.000000 0.000000 -2.674180 3.005039 2.407664 3.289795 -0.372517 -0.082143 1.250465 -0.416071 0.778767 0.859354 0.053381 0.230169 0.000000 0.000000 0.000000 0.929626 -0.084586 0.275331 0.408720 1.523736 -1.383161 -3.023216 -4.517418 -1.289318 0.000000 0.000000 0.000000 0.899261 -0.076266 0.312098 1.136367 -1.936204 -15.803647 -0.411673 -0.992552 -0.794733 4.639791 -8.277700 -37.578516 1.013644 -64.846089 1.215610 0.000000 0.000000 0.000000 1.096447 0.022879 0.461665 1.516063 4.139577 18.552039 0.340864 1.042543 -1.119170 -3.450788 6.258549 57.683994 0.586545 17.322550 0.484558 0.000000 0.000000 0.000000 
-0.058603 115.974266 1.488361 0.000000 0.000000 0.000000 -3.644143 3.315384 3.040346 -0.281486 8.463633 4.443280 13.190154 4.902150 -0.612308 -10.993383 0.977848 -4.198025 1.148278 0.191058 -0.786543 0.000000 0.000000 0.000000 -3.849884 3.565577 3.028696 -1.303852 -9.928533 -12.166280 13.366906 -6.122445 -1.314641 -6.449228 -1.413505 7.729518 -4.418216 -0.171383 -0.115269 0.000000 0.000000 0.000000 -2.752462 3.277830 2.482076 3.215853 -0.341174 -0.059633 1.207225 -0.419730 0.756319 0.848354 0.107494 0.227947 0.000000 0.000000 0.000000 0.866320 -0.098458 0.274235 0.490722 1.942437 -1.420095 -2.464609 -4.327003 -1.104758 0.000000 0.000000 0.000000 0.891272 -0.079304 0.290364 1.181830 -1.860798 -15.657486 -0.487627 -1.012973 -0.856948 4.592997 -8.229245 -37.703375 1.066999 -64.880097 1.355657 0.000000 0.000000 0.000000 1.103465 0.016784 0.430413 1.651626 4.082048 17.675252 0.201848 0.966054 -1.056528 -3.176538 6.200030 58.155113 0.595656 18.257466 0.429288 0.000000 0.000000 0.000000 
0.007726 115.919418 1.505920 0.000000 0.000000 0.000000 -3.705089 3.813754 3.110627 -0.270117 8.425547 4.250593 13.098140 4.741154 -0.568958 -11.016532 0.936300 -4.016824 1.140106 0.197555 -0.800489 0.000000 0.000000 0.000000 -3.944138 4.025795 3.099201 -1.094076 -10.013407 -12.242288 13.374758 -6.351791 -1.317763 -6.553709 -1.397919 7.886573 -4.422680 -0.164390 -0.103844 0.000000 0.000000 0.000000 -2.823495 3.586335 2.561834 3.147784 -0.286162 -0.014184 1.162937 -0.424943 0.727260 0.849760 0.144853 0.229780 0.000000 0.000000 0.000000 0.788858 -0.106865 0.262925 0.566026 2.394052 -1.456180 -1.974018 -4.209831 -0.893684 0.000000 0.000000 0.000000 0.891416 -0.086241 0.274996 1.222970 -1.796800 -15.502764 -0.533142 -1.016864 -0.893937 4.547458 -8.174796 -37.856556 1.109119 -64.950140 1.479364 0.000000 0.000000 0.000000 1.101316 0.005136 0.389052 1.804198 4.047145 16.693486 0.124707 0.948819 -1.011775 -2.506666 6.111939 58.711043 0.600883 20.351787 0.357431 0.000000 0.000000 0.000000 
0.072078 115.856079 1.508377 0.000000 0.000000 0.000000 -3.758884 4.355131 3.182064 -0.294573 8.341746 4.059519 13.042312 4.556204 -0.536287 -11.039229 0.884744 -3.851711 1.104367 0.205843 -0.811340 0.000000 0.000000 0.000000 -4.038311 4.535477 3.169581 -0.886938 -10.171561 -12.330388 13.346587 -6.603416 -1.321844 -6.664722 -1.329892 8.067666 -4.433822 -0.154146 -0.099464 0.000000 0.000000 0.000000 -2.879454 3.950832 2.651423 3.092425 -0.203373 0.048381 1.117847 -0.424740 0.693499 0.853903 0.137429 0.261804 0.000000 0.000000 0.000000 0.712164 -0.107017 0.239914 0.632427 2.857332 -1.506392 -1.616440 -4.224398 -0.671213 0.000000 0.000000 0.000000 0.904014 -0.094481 0.264154 1.257696 -1.745105 -15.354906 -0.530823 -0.971504 -0.908563 4.515270 -8.095870 -38.047589 1.149409 -65.061507 1.585006 0.000000 0.000000 0.000000 1.089503 -0.010236 0.342064 1.971332 4.038171 15.653192 0.008206 1.020916 -0.956698 -1.409343 6.082953 59.319667 0.618310 23.616267 0.279099 0.000000 0.000000 0.000000 
0.132457 115.802246 1.485310 0.000000 0.000000 0.000000 -3.791242 4.925671 3.260168 -0.353960 8.220346 3.864788 13.014254 4.361086 -0.514506 -11.022201 0.830229 -3.698709 1.054381 0.215119 -0.818618 0.000000 0.000000 0.000000 -4.106316 5.085608 3.249464 -0.698165 -10.411751 -12.443225 13.268383 -6.869485 -1.329068 -6.766509 -1.215552 8.272045 -4.467181 -0.141627 -0.100009 0.000000 0.000000 0.000000 -2.904704 4.391707 2.755836 3.057280 -0.091293 0.126493 1.070267 -0.413451 0.655905 0.857079 0.061680 0.270338 0.000000 0.000000 0.000000 0.650096 -0.096561 0.207415 0.693143 3.312406 -1.563328 -1.403563 -4.402555 -0.453101 0.000000 0.000000 0.000000 0.924723 -0.097385 0.255462 1.282691 -1.720813 -15.227191 -0.466588 -0.880223 -0.897837 4.475655 -7.997376 -38.279310 1.196800 -65.231121 1.673627 0.000000 0.000000 0.000000 1.072963 -0.018928 0.296317 2.138071 4.080270 14.607422 -0.120080 1.226439 -0.906945 0.011272 6.181012 59.902706 0.639828 27.794408 0.204715 0.000000 0.000000 0.000000 
0.186676 115.769020 1.435249 0.000000 0.000000 0.000000 -3.781691 5.539229 3.352386 -0.468387 8.072116 3.653566 12.997329 4.169126 -0.500054 -10.953489 0.781587 -3.537046 1.005071 0.223896 -0.821535 0.000000 0.000000 0.000000 -4.123898 5.676841 3.343620 -0.548571 -10.729239 -12.584602 13.143850 -7.146737 -1.337617 -6.855699 -1.075256 8.484423 -4.510394 -0.128738 -0.100496 0.000000 0.000000 0.000000 -2.885053 4.913869 2.877457 3.045832 0.050875 0.225221 1.022454 -0.387821 0.616722 0.854235 -0.033269 0.279686 0.000000 0.000000 0.000000 0.609631 -0.071430 0.173526 0.743693 3.744401 -1.618569 -1.303499 -4.745767 -0.262218 0.000000 0.000000 0.000000 0.951928 -0.088448 0.246433 1.298023 -1.730802 -15.139142 -0.364997 -0.744252 -0.903124 4.418525 -7.902806 -38.531450 1.255335 -65.452637 1.749676 0.000000 0.000000 0.000000 1.066634 -0.011598 0.255520 2.290811 4.229337 13.601329 -0.289311 1.448578 -0.821127 1.586438 6.444840 60.322052 0.633642 32.526023 0.154671 0.000000 0.000000 0.000000 
